<?xml version="1.0" encoding="UTF-8" standalone="no"?>
<svg
   xmlns:dc="http://purl.org/dc/elements/1.1/"
   xmlns:cc="http://creativecommons.org/ns#"
   xmlns:rdf="http://www.w3.org/1999/02/22-rdf-syntax-ns#"
   xmlns:svg="http://www.w3.org/2000/svg"
   xmlns="http://www.w3.org/2000/svg"
   xml:space="preserve"
   style="enable-background:new 0 0 512 512;"
   viewBox="0 0 512 512"
   y="0px"
   x="0px"
   id="Layer_1"
   version="1.1"><metadata
   id="metadata47"><rdf:RDF><cc:Work
       rdf:about=""><dc:format>image/svg+xml</dc:format><dc:type
         rdf:resource="http://purl.org/dc/dcmitype/StillImage" /><dc:title></dc:title></cc:Work></rdf:RDF></metadata><defs
   id="defs45" />
<path
   id="path2"
   d="M256,162.476c-4.109-2.461-8.328-4.679-12.631-6.655C127.127,90.857,159.445,0,159.445,0  C297.083,16.183,256,162.476,256,162.476z"
   style="fill:#90BC42;" />
<path
   id="path4"
   d="M318.867,144.705c80.844,0,146.378,82.226,146.378,183.654C465.244,429.774,399.711,512,318.867,512  c-22.499,0-43.822-6.388-62.867-17.771C236.944,505.612,215.633,512,193.121,512c-80.844,0-146.365-82.226-146.365-183.642  c0-101.428,65.521-183.654,146.365-183.654c17.65,0,34.573,3.928,50.247,11.116c4.025,2.255,8.231,4.473,12.632,6.655  C275.044,151.093,296.367,144.705,318.867,144.705z"
   style="fill:#F7B239;" />
<path
   id="path6"
   d="M256,210.917c35.7,0,64.649,48.841,64.649,109.089c0,87.281-64.649,109.101-64.649,109.101  s-64.661-25.457-64.661-109.101C191.339,259.758,220.288,210.917,256,210.917z"
   style="fill:#B27214;" />
<path
   id="path8"
   d="M239.829,320.006c0-45.78,16.717-84.967,40.412-101.151c-7.487-5.114-15.668-7.938-24.241-7.938  c-35.712,0-64.661,48.841-64.661,109.089c0,83.644,64.661,109.101,64.661,109.101s11.56-3.903,24.902-15.005  C262.425,398.563,239.829,369.454,239.829,320.006z"
   style="fill:#995C0D;" />
<path
   id="path10"
   d="M256,162.476c-4.109-2.461-8.328-4.679-12.631-6.655C127.127,90.857,159.445,0,159.445,0  S236.604,109.077,256,162.476z"
   style="fill:#9AD14B;" />
<g
   id="g12">
</g>
<g
   id="g14">
</g>
<g
   id="g16">
</g>
<g
   id="g18">
</g>
<g
   id="g20">
</g>
<g
   id="g22">
</g>
<g
   id="g24">
</g>
<g
   id="g26">
</g>
<g
   id="g28">
</g>
<g
   id="g30">
</g>
<g
   id="g32">
</g>
<g
   id="g34">
</g>
<g
   id="g36">
</g>
<g
   id="g38">
</g>
<g
   id="g40">
</g>
</svg>